<mxfile host="app.diagrams.net" modified="2023-05-28T17:44:39.564Z" agent="Mozilla/5.0 (Windows NT 10.0; Win64; x64) AppleWebKit/537.36 (KHTML, like Gecko) Chrome/112.0.0.0 Safari/537.36 OPR/98.0.0.0" etag="ya6RmN_XiloHxEwjlPcY" version="21.3.4" type="device">
  <diagram name="Σελίδα-1" id="WVEBd1sjFHavCeA0LY7U">
    <mxGraphModel dx="1886" dy="1013" grid="1" gridSize="10" guides="1" tooltips="1" connect="1" arrows="1" fold="1" page="1" pageScale="1" pageWidth="1169" pageHeight="1654" math="0" shadow="0">
      <root>
        <mxCell id="0" />
        <mxCell id="1" parent="0" />
        <mxCell id="PaOrN-Bwbaz09RTFRe5F-8" value="Χρήστης" style="shape=umlActor;verticalLabelPosition=bottom;verticalAlign=top;html=1;outlineConnect=0;fontSize=16;" vertex="1" parent="1">
          <mxGeometry x="450" y="1160" width="30" height="60" as="geometry" />
        </mxCell>
        <mxCell id="PaOrN-Bwbaz09RTFRe5F-9" value="" style="edgeStyle=none;curved=1;rounded=0;orthogonalLoop=1;jettySize=auto;html=1;fontSize=12;startSize=8;endSize=8;strokeColor=#000000;entryX=-0.014;entryY=0.471;entryDx=0;entryDy=0;entryPerimeter=0;exitX=0.5;exitY=0.5;exitDx=0;exitDy=0;exitPerimeter=0;" edge="1" parent="1" source="PaOrN-Bwbaz09RTFRe5F-8" target="PaOrN-Bwbaz09RTFRe5F-10">
          <mxGeometry relative="1" as="geometry">
            <Array as="points" />
            <mxPoint x="930" y="959.9999999999998" as="targetPoint" />
            <mxPoint x="720" y="976" as="sourcePoint" />
          </mxGeometry>
        </mxCell>
        <mxCell id="PaOrN-Bwbaz09RTFRe5F-10" value="Σελίδα &quot;Λίστα Καταστημάτων&quot;" style="shape=umlBoundary;whiteSpace=wrap;html=1;strokeColor=#000000;fontColor=#000000;fontSize=13;" vertex="1" parent="1">
          <mxGeometry x="1070" y="905.4" width="120" height="95" as="geometry" />
        </mxCell>
        <mxCell id="PaOrN-Bwbaz09RTFRe5F-11" value="Επιλέγει κατάστημα" style="edgeLabel;html=1;align=center;verticalAlign=middle;resizable=0;points=[];fontColor=#000000;fontSize=14;rotation=-15;" vertex="1" connectable="0" parent="1">
          <mxGeometry x="660" y="1090" as="geometry">
            <mxPoint x="10.435715398198244" y="-0.30958702784199765" as="offset" />
          </mxGeometry>
        </mxCell>
        <mxCell id="PaOrN-Bwbaz09RTFRe5F-12" value="" style="rounded=0;orthogonalLoop=1;jettySize=auto;html=1;fillColor=#FF0000;strokeColor=#000000;fontColor=#000000;entryX=0.132;entryY=0.867;entryDx=0;entryDy=0;entryPerimeter=0;" edge="1" parent="1" target="PaOrN-Bwbaz09RTFRe5F-70">
          <mxGeometry relative="1" as="geometry">
            <mxPoint x="1160" y="915" as="sourcePoint" />
            <mxPoint x="1310" y="952.9" as="targetPoint" />
          </mxGeometry>
        </mxCell>
        <mxCell id="PaOrN-Bwbaz09RTFRe5F-13" value="&lt;font&gt;Εμφάνισε&amp;nbsp;&lt;/font&gt;" style="ellipse;shape=umlControl;whiteSpace=wrap;html=1;strokeColor=#000000;fontColor=#000000;" vertex="1" parent="1">
          <mxGeometry x="1280" y="912.9" width="70" height="80" as="geometry" />
        </mxCell>
        <mxCell id="PaOrN-Bwbaz09RTFRe5F-14" value="Σελίδα &quot;Διαθέσιμα προϊόντα&quot;" style="shape=umlBoundary;whiteSpace=wrap;html=1;strokeColor=#000000;fontColor=#000000;fontSize=13;" vertex="1" parent="1">
          <mxGeometry x="1085" y="1024" width="120" height="95" as="geometry" />
        </mxCell>
        <mxCell id="PaOrN-Bwbaz09RTFRe5F-15" value="" style="rounded=0;orthogonalLoop=1;jettySize=auto;html=1;fillColor=#FF0000;strokeColor=#000000;fontColor=#000000;entryX=0.995;entryY=0.308;entryDx=0;entryDy=0;entryPerimeter=0;exitX=0.103;exitY=0.865;exitDx=0;exitDy=0;exitPerimeter=0;" edge="1" parent="1" source="PaOrN-Bwbaz09RTFRe5F-13" target="PaOrN-Bwbaz09RTFRe5F-14">
          <mxGeometry relative="1" as="geometry">
            <mxPoint x="1340" y="952.4" as="sourcePoint" />
            <mxPoint x="1438" y="952.4" as="targetPoint" />
          </mxGeometry>
        </mxCell>
        <mxCell id="PaOrN-Bwbaz09RTFRe5F-16" value="Λίστα καταστημάτων και προϊόντων" style="ellipse;shape=umlEntity;whiteSpace=wrap;html=1;fontColor=#000000;strokeColor=#000000;" vertex="1" parent="1">
          <mxGeometry x="1040" y="450" width="100" height="100" as="geometry" />
        </mxCell>
        <mxCell id="PaOrN-Bwbaz09RTFRe5F-18" value="" style="rounded=0;orthogonalLoop=1;jettySize=auto;html=1;fillColor=#FF0000;strokeColor=#000000;fontColor=#000000;entryX=0.514;entryY=0.021;entryDx=0;entryDy=0;entryPerimeter=0;exitX=0.716;exitY=1.029;exitDx=0;exitDy=0;exitPerimeter=0;" edge="1" parent="1" source="PaOrN-Bwbaz09RTFRe5F-65" target="PaOrN-Bwbaz09RTFRe5F-10">
          <mxGeometry relative="1" as="geometry">
            <mxPoint x="1091.6799999999998" y="830.3199999999999" as="sourcePoint" />
            <mxPoint x="1208" y="882.9" as="targetPoint" />
          </mxGeometry>
        </mxCell>
        <mxCell id="PaOrN-Bwbaz09RTFRe5F-19" value="" style="rounded=0;orthogonalLoop=1;jettySize=auto;html=1;fillColor=#FF0000;strokeColor=#000000;fontColor=#000000;exitX=0.519;exitY=1.006;exitDx=0;exitDy=0;exitPerimeter=0;entryX=0.545;entryY=0.099;entryDx=0;entryDy=0;entryPerimeter=0;" edge="1" parent="1" source="PaOrN-Bwbaz09RTFRe5F-68" target="PaOrN-Bwbaz09RTFRe5F-65">
          <mxGeometry relative="1" as="geometry">
            <mxPoint x="1080" y="772.9" as="sourcePoint" />
            <mxPoint x="1060" y="740" as="targetPoint" />
          </mxGeometry>
        </mxCell>
        <mxCell id="PaOrN-Bwbaz09RTFRe5F-20" value="" style="rounded=0;orthogonalLoop=1;jettySize=auto;html=1;fillColor=#FF0000;strokeColor=#000000;fontColor=#000000;exitX=0.508;exitY=0.994;exitDx=0;exitDy=0;exitPerimeter=0;entryX=0.267;entryY=0.192;entryDx=0;entryDy=0;entryPerimeter=0;" edge="1" parent="1" source="PaOrN-Bwbaz09RTFRe5F-70" target="PaOrN-Bwbaz09RTFRe5F-13">
          <mxGeometry relative="1" as="geometry">
            <mxPoint x="1360" y="740" as="sourcePoint" />
            <mxPoint x="1210" y="690" as="targetPoint" />
          </mxGeometry>
        </mxCell>
        <mxCell id="PaOrN-Bwbaz09RTFRe5F-21" value="" style="edgeStyle=none;curved=1;rounded=0;orthogonalLoop=1;jettySize=auto;html=1;fontSize=12;startSize=8;endSize=8;strokeColor=#000000;entryX=-0.005;entryY=0.476;entryDx=0;entryDy=0;entryPerimeter=0;exitX=0.5;exitY=0.5;exitDx=0;exitDy=0;exitPerimeter=0;" edge="1" parent="1" source="PaOrN-Bwbaz09RTFRe5F-8" target="PaOrN-Bwbaz09RTFRe5F-14">
          <mxGeometry relative="1" as="geometry">
            <Array as="points" />
            <mxPoint x="948" y="970" as="targetPoint" />
            <mxPoint x="695" y="960" as="sourcePoint" />
          </mxGeometry>
        </mxCell>
        <mxCell id="PaOrN-Bwbaz09RTFRe5F-22" value="&lt;font style=&quot;font-size: 12px;&quot;&gt;Επιλογή προϊόντων και επιλογή προσθήκης αυτών στο καλάθι&lt;/font&gt;" style="edgeLabel;html=1;align=center;verticalAlign=middle;resizable=0;points=[];fontColor=#000000;fontSize=12;rotation=-10;" vertex="1" connectable="0" parent="1">
          <mxGeometry x="800" y="1040" as="geometry">
            <mxPoint x="23" y="67" as="offset" />
          </mxGeometry>
        </mxCell>
        <mxCell id="PaOrN-Bwbaz09RTFRe5F-23" value="" style="edgeStyle=none;curved=1;rounded=0;orthogonalLoop=1;jettySize=auto;html=1;fontSize=12;startSize=8;endSize=8;strokeColor=#000000;exitX=0.986;exitY=0.551;exitDx=0;exitDy=0;exitPerimeter=0;entryX=-0.035;entryY=0.519;entryDx=0;entryDy=0;entryPerimeter=0;" edge="1" parent="1" source="PaOrN-Bwbaz09RTFRe5F-14" target="PaOrN-Bwbaz09RTFRe5F-24">
          <mxGeometry relative="1" as="geometry">
            <Array as="points" />
            <mxPoint x="1320" y="1079" as="targetPoint" />
            <mxPoint x="1250" y="1110" as="sourcePoint" />
          </mxGeometry>
        </mxCell>
        <mxCell id="PaOrN-Bwbaz09RTFRe5F-24" value="&lt;font&gt;Πρόσθεσε προϊόντα στο καλάθι χρήστη&lt;/font&gt;" style="ellipse;shape=umlControl;whiteSpace=wrap;html=1;strokeColor=#000000;fontColor=#000000;" vertex="1" parent="1">
          <mxGeometry x="1360" y="1034.4" width="70" height="80" as="geometry" />
        </mxCell>
        <mxCell id="PaOrN-Bwbaz09RTFRe5F-25" value="" style="rounded=0;orthogonalLoop=1;jettySize=auto;html=1;fillColor=#FF0000;strokeColor=#000000;fontColor=#000000;exitX=0.701;exitY=0.144;exitDx=0;exitDy=0;exitPerimeter=0;entryX=0.361;entryY=0.991;entryDx=0;entryDy=0;entryPerimeter=0;" edge="1" parent="1" source="PaOrN-Bwbaz09RTFRe5F-24" target="PaOrN-Bwbaz09RTFRe5F-26">
          <mxGeometry relative="1" as="geometry">
            <mxPoint x="1501" y="1012.9" as="sourcePoint" />
            <mxPoint x="1460" y="930" as="targetPoint" />
          </mxGeometry>
        </mxCell>
        <mxCell id="PaOrN-Bwbaz09RTFRe5F-26" value="User" style="ellipse;shape=umlEntity;whiteSpace=wrap;html=1;fontColor=#000000;strokeColor=#000000;" vertex="1" parent="1">
          <mxGeometry x="1440" y="890" width="80" height="82.1" as="geometry" />
        </mxCell>
        <mxCell id="PaOrN-Bwbaz09RTFRe5F-27" value="" style="endArrow=classic;html=1;rounded=0;exitX=0.156;exitY=0.854;exitDx=0;exitDy=0;exitPerimeter=0;entryX=0.914;entryY=0.275;entryDx=0;entryDy=0;entryPerimeter=0;" edge="1" parent="1" source="PaOrN-Bwbaz09RTFRe5F-24" target="PaOrN-Bwbaz09RTFRe5F-45">
          <mxGeometry width="50" height="50" relative="1" as="geometry">
            <mxPoint x="1340" y="1240" as="sourcePoint" />
            <mxPoint x="1270" y="1170" as="targetPoint" />
          </mxGeometry>
        </mxCell>
        <mxCell id="PaOrN-Bwbaz09RTFRe5F-28" value="Σελίδα &quot;Ολοκλήρωση αγορών&quot;" style="shape=umlBoundary;whiteSpace=wrap;html=1;strokeColor=#000000;fontColor=#000000;fontSize=13;" vertex="1" parent="1">
          <mxGeometry x="1040" y="1200" width="120" height="95" as="geometry" />
        </mxCell>
        <mxCell id="PaOrN-Bwbaz09RTFRe5F-29" value="" style="edgeStyle=none;curved=1;rounded=0;orthogonalLoop=1;jettySize=auto;html=1;fontSize=12;startSize=8;endSize=8;strokeColor=#000000;entryX=0.005;entryY=0.46;entryDx=0;entryDy=0;entryPerimeter=0;" edge="1" parent="1" source="PaOrN-Bwbaz09RTFRe5F-8" target="PaOrN-Bwbaz09RTFRe5F-28">
          <mxGeometry relative="1" as="geometry">
            <Array as="points" />
            <mxPoint x="1049" y="1082" as="targetPoint" />
            <mxPoint x="665" y="940" as="sourcePoint" />
          </mxGeometry>
        </mxCell>
        <mxCell id="PaOrN-Bwbaz09RTFRe5F-30" value="&lt;font style=&quot;font-size: 14px;&quot;&gt;Επιβεβαιώνει&lt;/font&gt;" style="edgeLabel;html=1;align=center;verticalAlign=middle;resizable=0;points=[];fontColor=#000000;fontSize=14;" vertex="1" connectable="0" parent="1">
          <mxGeometry x="830" y="1210" as="geometry" />
        </mxCell>
        <mxCell id="PaOrN-Bwbaz09RTFRe5F-31" value="" style="edgeStyle=none;curved=1;rounded=0;orthogonalLoop=1;jettySize=auto;html=1;fontSize=12;startSize=8;endSize=8;strokeColor=#000000;entryX=0.31;entryY=0.202;entryDx=0;entryDy=0;entryPerimeter=0;exitX=1.023;exitY=0.6;exitDx=0;exitDy=0;exitPerimeter=0;" edge="1" parent="1" source="PaOrN-Bwbaz09RTFRe5F-28" target="PaOrN-Bwbaz09RTFRe5F-32">
          <mxGeometry relative="1" as="geometry">
            <Array as="points" />
            <mxPoint x="1310" y="1310" as="targetPoint" />
            <mxPoint x="1170" y="1250" as="sourcePoint" />
          </mxGeometry>
        </mxCell>
        <mxCell id="PaOrN-Bwbaz09RTFRe5F-32" value="&lt;font&gt;Εμφάνισε&amp;nbsp;&lt;/font&gt;" style="ellipse;shape=umlControl;whiteSpace=wrap;html=1;strokeColor=#000000;fontColor=#000000;" vertex="1" parent="1">
          <mxGeometry x="1205" y="1290" width="70" height="80" as="geometry" />
        </mxCell>
        <mxCell id="PaOrN-Bwbaz09RTFRe5F-33" value="" style="edgeStyle=none;curved=1;rounded=0;orthogonalLoop=1;jettySize=auto;html=1;fontSize=12;startSize=8;endSize=8;strokeColor=#000000;exitX=-0.04;exitY=0.605;exitDx=0;exitDy=0;exitPerimeter=0;entryX=1.023;entryY=0.553;entryDx=0;entryDy=0;entryPerimeter=0;" edge="1" parent="1" source="PaOrN-Bwbaz09RTFRe5F-32" target="PaOrN-Bwbaz09RTFRe5F-34">
          <mxGeometry relative="1" as="geometry">
            <Array as="points" />
            <mxPoint x="1150" y="1360" as="targetPoint" />
            <mxPoint x="1150" y="1380" as="sourcePoint" />
          </mxGeometry>
        </mxCell>
        <mxCell id="PaOrN-Bwbaz09RTFRe5F-34" value="Σελίδα &quot;Στοιχεία δρομολόγησης&quot;" style="shape=umlBoundary;whiteSpace=wrap;html=1;strokeColor=#000000;fontColor=#000000;fontSize=13;" vertex="1" parent="1">
          <mxGeometry x="950" y="1315" width="120" height="95" as="geometry" />
        </mxCell>
        <mxCell id="PaOrN-Bwbaz09RTFRe5F-35" value="" style="edgeStyle=none;curved=1;rounded=0;orthogonalLoop=1;jettySize=auto;html=1;fontSize=12;startSize=8;endSize=8;strokeColor=#000000;entryX=-0.015;entryY=0.522;entryDx=0;entryDy=0;entryPerimeter=0;" edge="1" parent="1" source="PaOrN-Bwbaz09RTFRe5F-8" target="PaOrN-Bwbaz09RTFRe5F-34">
          <mxGeometry relative="1" as="geometry">
            <Array as="points" />
            <mxPoint x="981" y="1300" as="targetPoint" />
            <mxPoint x="610" y="998" as="sourcePoint" />
          </mxGeometry>
        </mxCell>
        <mxCell id="PaOrN-Bwbaz09RTFRe5F-36" value="&lt;font style=&quot;font-size: 14px;&quot;&gt;Συμπληρώνει φόρμας δρομολόγησης&amp;nbsp;&lt;br&gt;&lt;br&gt;&lt;/font&gt;" style="edgeLabel;html=1;align=center;verticalAlign=middle;resizable=0;points=[];fontColor=#000000;fontSize=14;rotation=20;" vertex="1" connectable="0" parent="1">
          <mxGeometry x="710" y="1295" as="geometry">
            <mxPoint x="-23.74802184352899" y="3.3957939952508496" as="offset" />
          </mxGeometry>
        </mxCell>
        <mxCell id="PaOrN-Bwbaz09RTFRe5F-37" value="" style="edgeStyle=none;curved=1;rounded=0;orthogonalLoop=1;jettySize=auto;html=1;fontSize=12;startSize=8;endSize=8;strokeColor=#000000;exitX=1.005;exitY=0.682;exitDx=0;exitDy=0;exitPerimeter=0;" edge="1" parent="1" source="PaOrN-Bwbaz09RTFRe5F-34" target="PaOrN-Bwbaz09RTFRe5F-38">
          <mxGeometry relative="1" as="geometry">
            <Array as="points" />
            <mxPoint x="1080" y="1450" as="targetPoint" />
            <mxPoint x="1020" y="1430" as="sourcePoint" />
          </mxGeometry>
        </mxCell>
        <mxCell id="PaOrN-Bwbaz09RTFRe5F-38" value="Είναι έγκυρα τα στοιχεία της φόρμας δρομολόγησης;" style="ellipse;shape=umlControl;whiteSpace=wrap;html=1;strokeColor=#000000;fontColor=#000000;" vertex="1" parent="1">
          <mxGeometry x="1085" y="1410" width="110" height="130" as="geometry" />
        </mxCell>
        <mxCell id="PaOrN-Bwbaz09RTFRe5F-39" value="" style="edgeStyle=none;curved=1;rounded=0;orthogonalLoop=1;jettySize=auto;html=1;fontSize=12;startSize=8;endSize=8;strokeColor=#000000;exitX=-0.027;exitY=0.623;exitDx=0;exitDy=0;exitPerimeter=0;entryX=1.033;entryY=0.534;entryDx=0;entryDy=0;entryPerimeter=0;" edge="1" parent="1" source="PaOrN-Bwbaz09RTFRe5F-38" target="PaOrN-Bwbaz09RTFRe5F-41">
          <mxGeometry relative="1" as="geometry">
            <Array as="points" />
            <mxPoint x="1000" y="1580" as="targetPoint" />
            <mxPoint x="1240" y="1500" as="sourcePoint" />
          </mxGeometry>
        </mxCell>
        <mxCell id="PaOrN-Bwbaz09RTFRe5F-40" value="&lt;font style=&quot;font-size: 14px;&quot;&gt;ναι&lt;br&gt;&lt;br&gt;&lt;/font&gt;" style="edgeLabel;html=1;align=center;verticalAlign=middle;resizable=0;points=[];fontColor=#000000;fontSize=14;" vertex="1" connectable="0" parent="1">
          <mxGeometry x="1040" y="1510" as="geometry" />
        </mxCell>
        <mxCell id="PaOrN-Bwbaz09RTFRe5F-41" value="&lt;font&gt;Εμφάνισε&amp;nbsp;&lt;/font&gt;" style="ellipse;shape=umlControl;whiteSpace=wrap;html=1;strokeColor=#000000;fontColor=#000000;" vertex="1" parent="1">
          <mxGeometry x="930" y="1452" width="70" height="80" as="geometry" />
        </mxCell>
        <mxCell id="PaOrN-Bwbaz09RTFRe5F-42" value="Σελίδα &quot;Ολοκλήρωση παραγγελίας&quot;" style="shape=umlBoundary;whiteSpace=wrap;html=1;strokeColor=#000000;fontColor=#000000;fontSize=13;" vertex="1" parent="1">
          <mxGeometry x="700" y="1437" width="120" height="95" as="geometry" />
        </mxCell>
        <mxCell id="PaOrN-Bwbaz09RTFRe5F-43" value="" style="edgeStyle=none;curved=1;rounded=0;orthogonalLoop=1;jettySize=auto;html=1;fontSize=12;startSize=8;endSize=8;strokeColor=#000000;exitX=0.025;exitY=0.518;exitDx=0;exitDy=0;exitPerimeter=0;" edge="1" parent="1" source="PaOrN-Bwbaz09RTFRe5F-41">
          <mxGeometry relative="1" as="geometry">
            <Array as="points" />
            <mxPoint x="820" y="1490" as="targetPoint" />
            <mxPoint x="900" y="1680" as="sourcePoint" />
          </mxGeometry>
        </mxCell>
        <mxCell id="PaOrN-Bwbaz09RTFRe5F-44" value="" style="edgeStyle=none;curved=1;rounded=0;orthogonalLoop=1;jettySize=auto;html=1;fontSize=12;startSize=8;endSize=8;strokeColor=#000000;exitX=0.5;exitY=0.5;exitDx=0;exitDy=0;exitPerimeter=0;entryX=-0.008;entryY=0.46;entryDx=0;entryDy=0;entryPerimeter=0;" edge="1" parent="1" source="PaOrN-Bwbaz09RTFRe5F-8" target="PaOrN-Bwbaz09RTFRe5F-42">
          <mxGeometry relative="1" as="geometry">
            <Array as="points" />
            <mxPoint x="660" y="1420" as="targetPoint" />
            <mxPoint x="460" y="1423" as="sourcePoint" />
          </mxGeometry>
        </mxCell>
        <mxCell id="PaOrN-Bwbaz09RTFRe5F-45" value="&lt;font&gt;Εμφάνισε&amp;nbsp;&lt;/font&gt;" style="ellipse;shape=umlControl;whiteSpace=wrap;html=1;strokeColor=#000000;fontColor=#000000;" vertex="1" parent="1">
          <mxGeometry x="1240" y="1121.9" width="70" height="80" as="geometry" />
        </mxCell>
        <mxCell id="PaOrN-Bwbaz09RTFRe5F-46" value="" style="endArrow=classic;html=1;rounded=0;exitX=0.022;exitY=0.738;exitDx=0;exitDy=0;exitPerimeter=0;entryX=1.004;entryY=0.256;entryDx=0;entryDy=0;entryPerimeter=0;" edge="1" parent="1" source="PaOrN-Bwbaz09RTFRe5F-45" target="PaOrN-Bwbaz09RTFRe5F-28">
          <mxGeometry width="50" height="50" relative="1" as="geometry">
            <mxPoint x="1372" y="1260" as="sourcePoint" />
            <mxPoint x="1270" y="1329" as="targetPoint" />
          </mxGeometry>
        </mxCell>
        <mxCell id="PaOrN-Bwbaz09RTFRe5F-47" value="User" style="ellipse;shape=umlEntity;whiteSpace=wrap;html=1;fontColor=#000000;strokeColor=#000000;" vertex="1" parent="1">
          <mxGeometry x="920" y="1787.9" width="80" height="82.1" as="geometry" />
        </mxCell>
        <mxCell id="PaOrN-Bwbaz09RTFRe5F-48" value="" style="rounded=0;orthogonalLoop=1;jettySize=auto;html=1;fillColor=#FF0000;strokeColor=#000000;fontColor=#000000;entryX=0.457;entryY=0.988;entryDx=0;entryDy=0;entryPerimeter=0;exitX=0.486;exitY=0.115;exitDx=0;exitDy=0;exitPerimeter=0;" edge="1" parent="1" source="PaOrN-Bwbaz09RTFRe5F-72" target="PaOrN-Bwbaz09RTFRe5F-41">
          <mxGeometry relative="1" as="geometry">
            <mxPoint x="890" y="1580" as="sourcePoint" />
            <mxPoint x="965" y="1620" as="targetPoint" />
          </mxGeometry>
        </mxCell>
        <mxCell id="PaOrN-Bwbaz09RTFRe5F-49" value="" style="edgeStyle=none;curved=1;rounded=0;orthogonalLoop=1;jettySize=auto;html=1;fontSize=12;startSize=8;endSize=8;strokeColor=#000000;exitX=0.613;exitY=1.009;exitDx=0;exitDy=0;exitPerimeter=0;entryX=0.514;entryY=0.129;entryDx=0;entryDy=0;entryPerimeter=0;" edge="1" parent="1" source="PaOrN-Bwbaz09RTFRe5F-42" target="PaOrN-Bwbaz09RTFRe5F-51">
          <mxGeometry relative="1" as="geometry">
            <Array as="points" />
            <mxPoint x="780" y="1640" as="targetPoint" />
            <mxPoint x="792" y="1653" as="sourcePoint" />
          </mxGeometry>
        </mxCell>
        <mxCell id="PaOrN-Bwbaz09RTFRe5F-50" value="&lt;font style=&quot;font-size: 12px;&quot;&gt;Εισάγει επιλογή&lt;br style=&quot;font-size: 12px;&quot;&gt;(επιβεβαίωση ή όχι)&lt;br style=&quot;font-size: 12px;&quot;&gt;&lt;/font&gt;" style="edgeLabel;html=1;align=center;verticalAlign=middle;resizable=0;points=[];fontSize=12;rotation=0;fontColor=#000000;" vertex="1" connectable="0" parent="1">
          <mxGeometry x="790.0002870063051" y="1790.004023431183" as="geometry">
            <mxPoint x="-176" y="-424" as="offset" />
          </mxGeometry>
        </mxCell>
        <mxCell id="PaOrN-Bwbaz09RTFRe5F-51" value="&lt;font&gt;Επιβεβαίωσε ο χρήστης;&lt;/font&gt;" style="ellipse;shape=umlControl;whiteSpace=wrap;html=1;strokeColor=#000000;fontColor=#000000;" vertex="1" parent="1">
          <mxGeometry x="750" y="1620" width="80" height="90" as="geometry" />
        </mxCell>
        <mxCell id="PaOrN-Bwbaz09RTFRe5F-52" value="" style="edgeStyle=none;curved=1;rounded=0;orthogonalLoop=1;jettySize=auto;html=1;fontSize=12;startSize=8;endSize=8;strokeColor=#000000;exitX=0.509;exitY=1.04;exitDx=0;exitDy=0;exitPerimeter=0;entryX=0.708;entryY=0.035;entryDx=0;entryDy=0;entryPerimeter=0;" edge="1" parent="1" source="PaOrN-Bwbaz09RTFRe5F-51" target="PaOrN-Bwbaz09RTFRe5F-54">
          <mxGeometry relative="1" as="geometry">
            <Array as="points" />
            <mxPoint x="760" y="1790" as="targetPoint" />
            <mxPoint x="780" y="1780" as="sourcePoint" />
          </mxGeometry>
        </mxCell>
        <mxCell id="PaOrN-Bwbaz09RTFRe5F-53" value="&lt;font style=&quot;font-size: 14px;&quot;&gt;ναι&lt;br&gt;&lt;br&gt;&lt;/font&gt;" style="edgeLabel;html=1;align=center;verticalAlign=middle;resizable=0;points=[];fontColor=#000000;fontSize=14;" vertex="1" connectable="0" parent="1">
          <mxGeometry x="770" y="1760" as="geometry" />
        </mxCell>
        <mxCell id="PaOrN-Bwbaz09RTFRe5F-54" value="Πληρωμή παραγγελίας" style="ellipse;whiteSpace=wrap;html=1;" vertex="1" parent="1">
          <mxGeometry x="695" y="1800" width="130" height="70" as="geometry" />
        </mxCell>
        <mxCell id="PaOrN-Bwbaz09RTFRe5F-55" value="" style="edgeStyle=none;curved=1;rounded=0;orthogonalLoop=1;jettySize=auto;html=1;fontSize=12;startSize=8;endSize=8;strokeColor=#FF0000;exitX=0.993;exitY=0.587;exitDx=0;exitDy=0;exitPerimeter=0;entryX=0.037;entryY=0.513;entryDx=0;entryDy=0;entryPerimeter=0;" edge="1" parent="1" source="PaOrN-Bwbaz09RTFRe5F-38" target="PaOrN-Bwbaz09RTFRe5F-57">
          <mxGeometry relative="1" as="geometry">
            <Array as="points" />
            <mxPoint x="1390" y="1475" as="targetPoint" />
            <mxPoint x="1250" y="1452" as="sourcePoint" />
          </mxGeometry>
        </mxCell>
        <mxCell id="PaOrN-Bwbaz09RTFRe5F-56" value="&lt;font style=&quot;font-size: 14px;&quot;&gt;όχι&lt;br&gt;&lt;/font&gt;" style="edgeLabel;html=1;align=center;verticalAlign=middle;resizable=0;points=[];fontColor=#000000;fontSize=14;" vertex="1" connectable="0" parent="1">
          <mxGeometry x="1050" y="1520" as="geometry">
            <mxPoint x="228" y="-50" as="offset" />
          </mxGeometry>
        </mxCell>
        <mxCell id="PaOrN-Bwbaz09RTFRe5F-57" value="&lt;font color=&quot;#ffffff&quot;&gt;Εμφάνισε μήνυμα σφάλματος&amp;nbsp;&lt;/font&gt;" style="ellipse;shape=umlControl;whiteSpace=wrap;html=1;strokeColor=#000000;fontColor=#000000;fillColor=#FF0000;" vertex="1" parent="1">
          <mxGeometry x="1360" y="1427.25" width="90" height="104.75" as="geometry" />
        </mxCell>
        <mxCell id="PaOrN-Bwbaz09RTFRe5F-58" value="" style="edgeStyle=none;curved=1;rounded=0;orthogonalLoop=1;jettySize=auto;html=1;fontSize=12;startSize=8;endSize=8;strokeColor=#FF0000;entryX=0.935;entryY=0.822;entryDx=0;entryDy=0;entryPerimeter=0;exitX=0.103;exitY=0.299;exitDx=0;exitDy=0;exitPerimeter=0;" edge="1" parent="1" source="PaOrN-Bwbaz09RTFRe5F-57" target="PaOrN-Bwbaz09RTFRe5F-32">
          <mxGeometry relative="1" as="geometry">
            <Array as="points" />
            <mxPoint x="1529" y="1405" as="targetPoint" />
            <mxPoint x="1360" y="1410" as="sourcePoint" />
          </mxGeometry>
        </mxCell>
        <mxCell id="PaOrN-Bwbaz09RTFRe5F-59" value="" style="edgeStyle=none;curved=1;rounded=0;orthogonalLoop=1;jettySize=auto;html=1;fontSize=12;startSize=8;endSize=8;strokeColor=#FF0000;exitX=0.842;exitY=0.188;exitDx=0;exitDy=0;exitPerimeter=0;entryX=0.006;entryY=0.687;entryDx=0;entryDy=0;entryPerimeter=0;" edge="1" parent="1" source="PaOrN-Bwbaz09RTFRe5F-51" target="PaOrN-Bwbaz09RTFRe5F-68">
          <mxGeometry relative="1" as="geometry">
            <Array as="points" />
            <mxPoint x="198.5999999999999" y="1125.1200000000001" as="targetPoint" />
            <mxPoint x="581" y="1585" as="sourcePoint" />
          </mxGeometry>
        </mxCell>
        <mxCell id="PaOrN-Bwbaz09RTFRe5F-60" value="&lt;font style=&quot;font-size: 14px;&quot;&gt;όχι&lt;br&gt;&lt;/font&gt;" style="edgeLabel;html=1;align=center;verticalAlign=middle;resizable=0;points=[];fontColor=#000000;fontSize=14;" vertex="1" connectable="0" parent="1">
          <mxGeometry x="610" y="1665" as="geometry">
            <mxPoint x="228" y="-50" as="offset" />
          </mxGeometry>
        </mxCell>
        <mxCell id="PaOrN-Bwbaz09RTFRe5F-61" value="User" style="ellipse;shape=umlEntity;whiteSpace=wrap;html=1;strokeColor=#000000;fontColor=#000000;fontSize=14;" vertex="1" parent="1">
          <mxGeometry x="715" y="660" width="85" height="80" as="geometry" />
        </mxCell>
        <mxCell id="PaOrN-Bwbaz09RTFRe5F-62" value="" style="endArrow=classic;html=1;rounded=0;entryX=0.988;entryY=0.651;entryDx=0;entryDy=0;entryPerimeter=0;exitX=0.048;exitY=0.494;exitDx=0;exitDy=0;exitPerimeter=0;" edge="1" parent="1" source="PaOrN-Bwbaz09RTFRe5F-66" target="PaOrN-Bwbaz09RTFRe5F-61">
          <mxGeometry width="50" height="50" relative="1" as="geometry">
            <mxPoint x="900" y="740" as="sourcePoint" />
            <mxPoint x="820" y="880" as="targetPoint" />
          </mxGeometry>
        </mxCell>
        <mxCell id="PaOrN-Bwbaz09RTFRe5F-63" value="Φόρμα δρομολόγησης" style="ellipse;shape=umlEntity;whiteSpace=wrap;html=1;fontColor=#000000;strokeColor=#000000;" vertex="1" parent="1">
          <mxGeometry x="1140" y="1610" width="80" height="82.1" as="geometry" />
        </mxCell>
        <mxCell id="PaOrN-Bwbaz09RTFRe5F-64" value="" style="edgeStyle=none;curved=1;rounded=0;orthogonalLoop=1;jettySize=auto;html=1;fontSize=12;startSize=8;endSize=8;strokeColor=#000000;exitX=0.656;exitY=0.995;exitDx=0;exitDy=0;exitPerimeter=0;entryX=0.368;entryY=-0.022;entryDx=0;entryDy=0;entryPerimeter=0;" edge="1" parent="1" source="PaOrN-Bwbaz09RTFRe5F-38" target="PaOrN-Bwbaz09RTFRe5F-63">
          <mxGeometry relative="1" as="geometry">
            <Array as="points" />
            <mxPoint x="1114" y="1436" as="targetPoint" />
            <mxPoint x="1081" y="1390" as="sourcePoint" />
          </mxGeometry>
        </mxCell>
        <mxCell id="PaOrN-Bwbaz09RTFRe5F-65" value="&lt;font&gt;Εμφάνισε&amp;nbsp;&lt;/font&gt;" style="ellipse;shape=umlControl;whiteSpace=wrap;html=1;strokeColor=#000000;fontColor=#000000;" vertex="1" parent="1">
          <mxGeometry x="1055" y="760" width="70" height="80" as="geometry" />
        </mxCell>
        <mxCell id="PaOrN-Bwbaz09RTFRe5F-66" value="&lt;font&gt;Λήψη υπόλοιπου χρήστη&lt;/font&gt;" style="ellipse;shape=umlControl;whiteSpace=wrap;html=1;strokeColor=#000000;fontColor=#000000;" vertex="1" parent="1">
          <mxGeometry x="910" y="690" width="70" height="80" as="geometry" />
        </mxCell>
        <mxCell id="PaOrN-Bwbaz09RTFRe5F-67" value="" style="rounded=0;orthogonalLoop=1;jettySize=auto;html=1;fillColor=#FF0000;strokeColor=#000000;fontColor=#000000;exitX=0.989;exitY=0.675;exitDx=0;exitDy=0;exitPerimeter=0;entryX=0.042;entryY=0.376;entryDx=0;entryDy=0;entryPerimeter=0;" edge="1" parent="1" source="PaOrN-Bwbaz09RTFRe5F-66" target="PaOrN-Bwbaz09RTFRe5F-65">
          <mxGeometry relative="1" as="geometry">
            <mxPoint x="1318" y="932" as="sourcePoint" />
            <mxPoint x="970" y="810" as="targetPoint" />
          </mxGeometry>
        </mxCell>
        <mxCell id="PaOrN-Bwbaz09RTFRe5F-68" value="&lt;font&gt;Λήψη καταστημάτων&lt;/font&gt;" style="ellipse;shape=umlControl;whiteSpace=wrap;html=1;strokeColor=#000000;fontColor=#000000;" vertex="1" parent="1">
          <mxGeometry x="1055" y="620" width="70" height="80" as="geometry" />
        </mxCell>
        <mxCell id="PaOrN-Bwbaz09RTFRe5F-69" value="" style="rounded=0;orthogonalLoop=1;jettySize=auto;html=1;fillColor=#FF0000;strokeColor=#000000;fontColor=#000000;entryX=0.5;entryY=1;entryDx=0;entryDy=0;exitX=0.532;exitY=0.173;exitDx=0;exitDy=0;exitPerimeter=0;" edge="1" parent="1" source="PaOrN-Bwbaz09RTFRe5F-68" target="PaOrN-Bwbaz09RTFRe5F-16">
          <mxGeometry relative="1" as="geometry">
            <mxPoint x="1318" y="932" as="sourcePoint" />
            <mxPoint x="1147" y="530" as="targetPoint" />
          </mxGeometry>
        </mxCell>
        <mxCell id="PaOrN-Bwbaz09RTFRe5F-70" value="&lt;font&gt;Λήψη προϊόντων&lt;/font&gt;" style="ellipse;shape=umlControl;whiteSpace=wrap;html=1;strokeColor=#000000;fontColor=#000000;" vertex="1" parent="1">
          <mxGeometry x="1190" y="620" width="70" height="80" as="geometry" />
        </mxCell>
        <mxCell id="PaOrN-Bwbaz09RTFRe5F-71" value="" style="rounded=0;orthogonalLoop=1;jettySize=auto;html=1;fillColor=#FF0000;strokeColor=#000000;fontColor=#000000;exitX=0.159;exitY=0.191;exitDx=0;exitDy=0;exitPerimeter=0;entryX=0.939;entryY=0.764;entryDx=0;entryDy=0;entryPerimeter=0;" edge="1" parent="1" source="PaOrN-Bwbaz09RTFRe5F-70" target="PaOrN-Bwbaz09RTFRe5F-16">
          <mxGeometry relative="1" as="geometry">
            <mxPoint x="1318" y="932" as="sourcePoint" />
            <mxPoint x="1224" y="689" as="targetPoint" />
          </mxGeometry>
        </mxCell>
        <mxCell id="PaOrN-Bwbaz09RTFRe5F-72" value="&lt;font&gt;Λήψη Καλάθι χρήστη&lt;/font&gt;" style="ellipse;shape=umlControl;whiteSpace=wrap;html=1;strokeColor=#000000;fontColor=#000000;" vertex="1" parent="1">
          <mxGeometry x="920" y="1640" width="80" height="85" as="geometry" />
        </mxCell>
        <mxCell id="PaOrN-Bwbaz09RTFRe5F-73" value="" style="rounded=0;orthogonalLoop=1;jettySize=auto;html=1;fillColor=#FF0000;strokeColor=#000000;fontColor=#000000;exitX=0.5;exitY=0.941;exitDx=0;exitDy=0;exitPerimeter=0;entryX=0.5;entryY=0;entryDx=0;entryDy=0;" edge="1" parent="1" source="PaOrN-Bwbaz09RTFRe5F-72" target="PaOrN-Bwbaz09RTFRe5F-47">
          <mxGeometry relative="1" as="geometry">
            <mxPoint x="973" y="1540" as="sourcePoint" />
            <mxPoint x="970" y="1790" as="targetPoint" />
          </mxGeometry>
        </mxCell>
      </root>
    </mxGraphModel>
  </diagram>
</mxfile>
